<?xml version="1.0" standalone="no"?>
<!DOCTYPE svg PUBLIC "-//W3C//DTD SVG 20010904//EN"
 "http://www.w3.org/TR/2001/REC-SVG-20010904/DTD/svg10.dtd">
<svg version="1.0" xmlns="http://www.w3.org/2000/svg"
 width="480.000000pt" height="480.000000pt" viewBox="0 0 480.000000 480.000000"
 preserveAspectRatio="xMidYMid meet">

<g transform="translate(0.000000,480.000000) scale(0.100000,-0.100000)"
fill="#000000" stroke="none">
<path d="M575 4575 c-85 -18 -178 -58 -235 -100 -106 -78 -200 -222 -245 -376
l-25 -84 0 -1595 c0 -1562 0 -1597 20 -1667 39 -142 111 -265 205 -352 56 -52
179 -132 239 -157 25 -11 46 -22 46 -26 0 -5 807 -8 1793 -8 l1794 0 64 26
c104 42 180 92 252 166 37 38 67 75 67 82 0 6 18 33 39 59 22 26 42 62 46 80
4 17 26 63 48 102 l42 69 3 1605 c2 1595 2 1606 -18 1686 -61 234 -220 408
-447 486 -55 19 -97 19 -1842 18 -1432 0 -1798 -3 -1846 -14z m274 -436 c43
-30 71 -79 71 -121 0 -12 -9 -40 -20 -63 -22 -45 -80 -85 -122 -85 -36 0 -104
63 -123 115 -17 43 -17 45 5 89 47 97 114 120 189 65z m528 -5 c81 -53 72
-182 -17 -241 -41 -28 -65 -29 -107 -3 -91 55 -98 228 -11 264 34 15 97 6 135
-20z m2215 -14 c50 -53 54 -103 15 -173 -51 -90 -155 -88 -206 3 -54 97 4 210
107 210 40 0 50 -5 84 -40z m524 5 c55 -59 62 -126 19 -191 -55 -84 -182 -61
-220 41 -23 58 -14 105 29 150 30 31 39 35 86 35 47 0 56 -4 86 -35z m-3726
-605 c0 -6 27 -7 73 -4 137 12 2461 12 2469 0 6 -8 8 -8 8 0 0 12 897 13 983
0 32 -4 47 -3 47 5 0 8 56 9 203 4 111 -4 210 -7 219 -7 44 2 43 40 43 -1322
0 -1060 -2 -1301 -14 -1346 -44 -176 -188 -318 -356 -350 -44 -8 -508 -10
-1705 -8 l-1645 3 -65 31 c-135 64 -229 170 -270 301 -20 64 -20 91 -20 1368
0 717 3 1310 6 1319 7 18 24 22 24 6z"/>
<path d="M3081 3068 c-142 -20 -303 -103 -424 -218 -134 -127 -219 -268 -272
-455 -95 -330 -63 -754 73 -983 87 -145 231 -287 361 -356 174 -91 462 -124
673 -77 112 25 360 137 427 192 l24 20 -2 247 c-1 136 -4 272 -7 303 -11 103
27 162 122 193 45 15 53 21 58 48 10 51 7 95 -9 108 -23 19 -836 10 -859 -10
-15 -12 -17 -27 -14 -96 5 -124 12 -128 216 -137 67 -3 98 -9 109 -20 26 -26
32 -92 33 -350 l0 -248 -42 -19 c-104 -45 -293 -49 -421 -10 -208 64 -344 273
-393 601 -13 90 -15 156 -11 314 6 201 23 369 38 359 4 -2 11 12 14 33 13 76
49 181 61 176 6 -2 14 7 18 21 8 32 68 78 161 122 171 83 391 65 548 -43 48
-34 98 -102 128 -178 13 -33 30 -70 37 -82 17 -28 65 -38 123 -26 49 10 42
-10 69 178 6 45 24 107 40 142 l29 63 -32 24 c-66 49 -363 151 -482 165 -105
13 -303 12 -394 -1z"/>
<path d="M712 2974 l3 -77 68 -28 c38 -15 77 -35 87 -44 38 -34 40 -96 38
-841 -3 -830 8 -750 -109 -785 -37 -11 -73 -27 -79 -34 -6 -8 -10 -45 -8 -92
l3 -78 690 0 690 0 22 70 c12 39 28 106 36 151 8 44 29 113 46 153 39 88 37
110 -9 133 -37 19 -115 24 -139 9 -7 -5 -39 -57 -70 -117 -31 -59 -67 -116
-81 -126 -43 -31 -130 -40 -366 -36 -255 3 -253 3 -263 85 -4 26 -5 179 -3
339 l4 290 175 3 c209 3 209 3 248 -99 29 -77 45 -88 112 -77 61 10 73 29 73
116 0 70 10 215 26 383 l7 68 -36 15 c-20 8 -54 15 -77 15 l-40 0 -40 -80
c-22 -43 -49 -84 -59 -90 -12 -6 -98 -10 -212 -10 l-192 0 7 46 c3 26 6 168 6
316 l0 269 274 -3 c274 -3 274 -3 300 -27 14 -13 32 -44 41 -68 8 -23 22 -63
31 -88 l16 -45 63 0 c42 0 68 5 78 14 9 9 17 48 21 103 4 48 13 120 22 159 8
38 14 95 12 125 l-3 54 -708 3 -708 2 3 -76z"/>
</g>
</svg>
